<mxfile host="app.diagrams.net" modified="2020-08-12T22:00:19.307Z" agent="5.0 (Macintosh; Intel Mac OS X 10_15_6) AppleWebKit/605.1.15 (KHTML, like Gecko) Version/13.1.2 Safari/605.1.15" etag="27ruP_icEuXBSiifXkcG" version="13.6.2" type="github" pages="3">
  <diagram id="R2lEEEUBdFMjLlhIrx00" name="DER">
    <mxGraphModel dx="854" dy="356" grid="1" gridSize="10" guides="1" tooltips="1" connect="1" arrows="1" fold="1" page="1" pageScale="1" pageWidth="850" pageHeight="1100" math="0" shadow="0" extFonts="Permanent Marker^https://fonts.googleapis.com/css?family=Permanent+Marker">
      <root>
        <mxCell id="0" />
        <mxCell id="1" parent="0" />
        <mxCell id="C-vyLk0tnHw3VtMMgP7b-1" value="" style="edgeStyle=entityRelationEdgeStyle;endArrow=ERzeroToMany;startArrow=ERone;endFill=1;startFill=0;" parent="1" target="C-vyLk0tnHw3VtMMgP7b-6" edge="1">
          <mxGeometry width="100" height="100" relative="1" as="geometry">
            <mxPoint x="380" y="330" as="sourcePoint" />
            <mxPoint x="440" y="620" as="targetPoint" />
          </mxGeometry>
        </mxCell>
        <mxCell id="C-vyLk0tnHw3VtMMgP7b-2" value="branch_daily_mov" style="shape=table;startSize=30;container=1;collapsible=1;childLayout=tableLayout;fixedRows=1;rowLines=0;fontStyle=1;align=center;resizeLast=1;" parent="1" vertex="1">
          <mxGeometry x="450" y="120" width="250" height="150" as="geometry" />
        </mxCell>
        <mxCell id="C-vyLk0tnHw3VtMMgP7b-3" value="" style="shape=partialRectangle;collapsible=0;dropTarget=0;pointerEvents=0;fillColor=none;points=[[0,0.5],[1,0.5]];portConstraint=eastwest;top=0;left=0;right=0;bottom=1;" parent="C-vyLk0tnHw3VtMMgP7b-2" vertex="1">
          <mxGeometry y="30" width="250" height="30" as="geometry" />
        </mxCell>
        <mxCell id="C-vyLk0tnHw3VtMMgP7b-4" value="PK" style="shape=partialRectangle;overflow=hidden;connectable=0;fillColor=none;top=0;left=0;bottom=0;right=0;fontStyle=1;" parent="C-vyLk0tnHw3VtMMgP7b-3" vertex="1">
          <mxGeometry width="30" height="30" as="geometry" />
        </mxCell>
        <mxCell id="C-vyLk0tnHw3VtMMgP7b-5" value="idÂ BIGINT NOT NULL " style="shape=partialRectangle;overflow=hidden;connectable=0;fillColor=none;top=0;left=0;bottom=0;right=0;align=left;spacingLeft=6;fontStyle=5;" parent="C-vyLk0tnHw3VtMMgP7b-3" vertex="1">
          <mxGeometry x="30" width="220" height="30" as="geometry" />
        </mxCell>
        <mxCell id="C-vyLk0tnHw3VtMMgP7b-6" value="" style="shape=partialRectangle;collapsible=0;dropTarget=0;pointerEvents=0;fillColor=none;points=[[0,0.5],[1,0.5]];portConstraint=eastwest;top=0;left=0;right=0;bottom=0;" parent="C-vyLk0tnHw3VtMMgP7b-2" vertex="1">
          <mxGeometry y="60" width="250" height="30" as="geometry" />
        </mxCell>
        <mxCell id="C-vyLk0tnHw3VtMMgP7b-7" value="FK1" style="shape=partialRectangle;overflow=hidden;connectable=0;fillColor=none;top=0;left=0;bottom=0;right=0;" parent="C-vyLk0tnHw3VtMMgP7b-6" vertex="1">
          <mxGeometry width="30" height="30" as="geometry" />
        </mxCell>
        <mxCell id="C-vyLk0tnHw3VtMMgP7b-8" value="branch_id CHAR(30) NOT NULL" style="shape=partialRectangle;overflow=hidden;connectable=0;fillColor=none;top=0;left=0;bottom=0;right=0;align=left;spacingLeft=6;" parent="C-vyLk0tnHw3VtMMgP7b-6" vertex="1">
          <mxGeometry x="30" width="220" height="30" as="geometry" />
        </mxCell>
        <mxCell id="C-vyLk0tnHw3VtMMgP7b-9" value="" style="shape=partialRectangle;collapsible=0;dropTarget=0;pointerEvents=0;fillColor=none;points=[[0,0.5],[1,0.5]];portConstraint=eastwest;top=0;left=0;right=0;bottom=0;" parent="C-vyLk0tnHw3VtMMgP7b-2" vertex="1">
          <mxGeometry y="90" width="250" height="30" as="geometry" />
        </mxCell>
        <mxCell id="C-vyLk0tnHw3VtMMgP7b-10" value="" style="shape=partialRectangle;overflow=hidden;connectable=0;fillColor=none;top=0;left=0;bottom=0;right=0;" parent="C-vyLk0tnHw3VtMMgP7b-9" vertex="1">
          <mxGeometry width="30" height="30" as="geometry" />
        </mxCell>
        <mxCell id="C-vyLk0tnHw3VtMMgP7b-11" value="date_mov date NOT NULL" style="shape=partialRectangle;overflow=hidden;connectable=0;fillColor=none;top=0;left=0;bottom=0;right=0;align=left;spacingLeft=6;" parent="C-vyLk0tnHw3VtMMgP7b-9" vertex="1">
          <mxGeometry x="30" width="220" height="30" as="geometry" />
        </mxCell>
        <mxCell id="C-vyLk0tnHw3VtMMgP7b-23" value="tenant" style="shape=table;startSize=30;container=1;collapsible=1;childLayout=tableLayout;fixedRows=1;rowLines=0;fontStyle=1;align=center;resizeLast=1;" parent="1" vertex="1">
          <mxGeometry x="120" y="120" width="250" height="110" as="geometry" />
        </mxCell>
        <mxCell id="C-vyLk0tnHw3VtMMgP7b-24" value="" style="shape=partialRectangle;collapsible=0;dropTarget=0;pointerEvents=0;fillColor=none;points=[[0,0.5],[1,0.5]];portConstraint=eastwest;top=0;left=0;right=0;bottom=1;" parent="C-vyLk0tnHw3VtMMgP7b-23" vertex="1">
          <mxGeometry y="30" width="250" height="30" as="geometry" />
        </mxCell>
        <mxCell id="C-vyLk0tnHw3VtMMgP7b-25" value="PK" style="shape=partialRectangle;overflow=hidden;connectable=0;fillColor=none;top=0;left=0;bottom=0;right=0;fontStyle=1;" parent="C-vyLk0tnHw3VtMMgP7b-24" vertex="1">
          <mxGeometry width="30" height="30" as="geometry" />
        </mxCell>
        <mxCell id="C-vyLk0tnHw3VtMMgP7b-26" value="id int NOT NULL " style="shape=partialRectangle;overflow=hidden;connectable=0;fillColor=none;top=0;left=0;bottom=0;right=0;align=left;spacingLeft=6;fontStyle=5;" parent="C-vyLk0tnHw3VtMMgP7b-24" vertex="1">
          <mxGeometry x="30" width="220" height="30" as="geometry" />
        </mxCell>
        <mxCell id="C-vyLk0tnHw3VtMMgP7b-27" value="" style="shape=partialRectangle;collapsible=0;dropTarget=0;pointerEvents=0;fillColor=none;points=[[0,0.5],[1,0.5]];portConstraint=eastwest;top=0;left=0;right=0;bottom=0;" parent="C-vyLk0tnHw3VtMMgP7b-23" vertex="1">
          <mxGeometry y="60" width="250" height="30" as="geometry" />
        </mxCell>
        <mxCell id="C-vyLk0tnHw3VtMMgP7b-28" value="" style="shape=partialRectangle;overflow=hidden;connectable=0;fillColor=none;top=0;left=0;bottom=0;right=0;" parent="C-vyLk0tnHw3VtMMgP7b-27" vertex="1">
          <mxGeometry width="30" height="30" as="geometry" />
        </mxCell>
        <mxCell id="C-vyLk0tnHw3VtMMgP7b-29" value="name char(50) NOT NULL" style="shape=partialRectangle;overflow=hidden;connectable=0;fillColor=none;top=0;left=0;bottom=0;right=0;align=left;spacingLeft=6;" parent="C-vyLk0tnHw3VtMMgP7b-27" vertex="1">
          <mxGeometry x="30" width="220" height="30" as="geometry" />
        </mxCell>
        <mxCell id="QNbbVvkOHn5wzbFiZERa-1" value="component_id SMALLINT NOT NULL" style="shape=partialRectangle;overflow=hidden;connectable=0;fillColor=none;top=0;left=0;bottom=0;right=0;align=left;spacingLeft=6;" vertex="1" parent="1">
          <mxGeometry x="480" y="240" width="220" height="30" as="geometry" />
        </mxCell>
        <mxCell id="QNbbVvkOHn5wzbFiZERa-21" value="" style="edgeStyle=entityRelationEdgeStyle;endArrow=ERzeroToMany;startArrow=ERone;endFill=1;startFill=0;exitX=1;exitY=0.5;exitDx=0;exitDy=0;entryX=0;entryY=0.5;entryDx=0;entryDy=0;" edge="1" parent="1" source="C-vyLk0tnHw3VtMMgP7b-24" target="QNbbVvkOHn5wzbFiZERa-15">
          <mxGeometry width="100" height="100" relative="1" as="geometry">
            <mxPoint x="40" y="280" as="sourcePoint" />
            <mxPoint x="120" y="310" as="targetPoint" />
          </mxGeometry>
        </mxCell>
        <mxCell id="QNbbVvkOHn5wzbFiZERa-11" value="tenant_branch" style="shape=table;startSize=30;container=1;collapsible=1;childLayout=tableLayout;fixedRows=1;rowLines=0;fontStyle=1;align=center;resizeLast=1;" vertex="1" parent="1">
          <mxGeometry x="120" y="290" width="250" height="120" as="geometry" />
        </mxCell>
        <mxCell id="QNbbVvkOHn5wzbFiZERa-12" value="" style="shape=partialRectangle;collapsible=0;dropTarget=0;pointerEvents=0;fillColor=none;points=[[0,0.5],[1,0.5]];portConstraint=eastwest;top=0;left=0;right=0;bottom=1;" vertex="1" parent="QNbbVvkOHn5wzbFiZERa-11">
          <mxGeometry y="30" width="250" height="30" as="geometry" />
        </mxCell>
        <mxCell id="QNbbVvkOHn5wzbFiZERa-13" value="PK" style="shape=partialRectangle;overflow=hidden;connectable=0;fillColor=none;top=0;left=0;bottom=0;right=0;fontStyle=1;" vertex="1" parent="QNbbVvkOHn5wzbFiZERa-12">
          <mxGeometry width="30" height="30" as="geometry" />
        </mxCell>
        <mxCell id="QNbbVvkOHn5wzbFiZERa-14" value="IDENTIFIER CHAR(30) NOT NULL " style="shape=partialRectangle;overflow=hidden;connectable=0;fillColor=none;top=0;left=0;bottom=0;right=0;align=left;spacingLeft=6;fontStyle=5;" vertex="1" parent="QNbbVvkOHn5wzbFiZERa-12">
          <mxGeometry x="30" width="220" height="30" as="geometry" />
        </mxCell>
        <mxCell id="QNbbVvkOHn5wzbFiZERa-15" value="" style="shape=partialRectangle;collapsible=0;dropTarget=0;pointerEvents=0;fillColor=none;points=[[0,0.5],[1,0.5]];portConstraint=eastwest;top=0;left=0;right=0;bottom=0;" vertex="1" parent="QNbbVvkOHn5wzbFiZERa-11">
          <mxGeometry y="60" width="250" height="30" as="geometry" />
        </mxCell>
        <mxCell id="QNbbVvkOHn5wzbFiZERa-16" value="FK1" style="shape=partialRectangle;overflow=hidden;connectable=0;fillColor=none;top=0;left=0;bottom=0;right=0;" vertex="1" parent="QNbbVvkOHn5wzbFiZERa-15">
          <mxGeometry width="30" height="30" as="geometry" />
        </mxCell>
        <mxCell id="QNbbVvkOHn5wzbFiZERa-17" value="tenant_id int NOT NULL" style="shape=partialRectangle;overflow=hidden;connectable=0;fillColor=none;top=0;left=0;bottom=0;right=0;align=left;spacingLeft=6;" vertex="1" parent="QNbbVvkOHn5wzbFiZERa-15">
          <mxGeometry x="30" width="220" height="30" as="geometry" />
        </mxCell>
        <mxCell id="QNbbVvkOHn5wzbFiZERa-18" value="" style="shape=partialRectangle;collapsible=0;dropTarget=0;pointerEvents=0;fillColor=none;points=[[0,0.5],[1,0.5]];portConstraint=eastwest;top=0;left=0;right=0;bottom=0;" vertex="1" parent="QNbbVvkOHn5wzbFiZERa-11">
          <mxGeometry y="90" width="250" height="30" as="geometry" />
        </mxCell>
        <mxCell id="QNbbVvkOHn5wzbFiZERa-19" value="" style="shape=partialRectangle;overflow=hidden;connectable=0;fillColor=none;top=0;left=0;bottom=0;right=0;" vertex="1" parent="QNbbVvkOHn5wzbFiZERa-18">
          <mxGeometry width="30" height="30" as="geometry" />
        </mxCell>
        <mxCell id="QNbbVvkOHn5wzbFiZERa-20" value="" style="shape=partialRectangle;overflow=hidden;connectable=0;fillColor=none;top=0;left=0;bottom=0;right=0;align=left;spacingLeft=6;" vertex="1" parent="QNbbVvkOHn5wzbFiZERa-18">
          <mxGeometry x="30" width="220" height="30" as="geometry" />
        </mxCell>
        <mxCell id="PxhB8Xin9UVxQcQUH7_S-1" value="DATABASE VISUALMIX" style="shape=note;whiteSpace=wrap;html=1;size=14;verticalAlign=top;align=left;spacingTop=-6;" vertex="1" parent="1">
          <mxGeometry x="360" y="70" width="80" height="40" as="geometry" />
        </mxCell>
      </root>
    </mxGraphModel>
  </diagram>
  <diagram id="bEyktq-xXKK-_xe7Ogyu" name="Flux Diagram">
    <mxGraphModel dx="1238" dy="516" grid="1" gridSize="10" guides="1" tooltips="1" connect="1" arrows="1" fold="1" page="1" pageScale="1" pageWidth="827" pageHeight="1169" math="0" shadow="0">
      <root>
        <mxCell id="W4LlauTfSX9rmrrIxcwp-0" />
        <mxCell id="W4LlauTfSX9rmrrIxcwp-1" parent="W4LlauTfSX9rmrrIxcwp-0" />
        <mxCell id="RfvmIdjkabR53NWstXG5-6" style="edgeStyle=orthogonalEdgeStyle;rounded=0;orthogonalLoop=1;jettySize=auto;html=1;exitX=0.5;exitY=1;exitDx=0;exitDy=0;" edge="1" parent="W4LlauTfSX9rmrrIxcwp-1" source="RfvmIdjkabR53NWstXG5-1" target="RfvmIdjkabR53NWstXG5-5">
          <mxGeometry relative="1" as="geometry" />
        </mxCell>
        <mxCell id="RfvmIdjkabR53NWstXG5-1" value="Mapper resulted data &lt;br&gt;from query&amp;nbsp;to &amp;nbsp;dto TenantDailyMovCliDTO" style="shape=parallelogram;perimeter=parallelogramPerimeter;whiteSpace=wrap;html=1;dashed=0;" vertex="1" parent="W4LlauTfSX9rmrrIxcwp-1">
          <mxGeometry x="495" y="350" width="200" height="100" as="geometry" />
        </mxCell>
        <mxCell id="RfvmIdjkabR53NWstXG5-4" style="edgeStyle=orthogonalEdgeStyle;rounded=0;orthogonalLoop=1;jettySize=auto;html=1;exitX=0.5;exitY=1;exitDx=0;exitDy=0;" edge="1" parent="W4LlauTfSX9rmrrIxcwp-1" source="RfvmIdjkabR53NWstXG5-2" target="RfvmIdjkabR53NWstXG5-1">
          <mxGeometry relative="1" as="geometry" />
        </mxCell>
        <mxCell id="RfvmIdjkabR53NWstXG5-2" value="Execute query to resume data.&amp;nbsp;&lt;br&gt;Query attached on the e-mail" style="shape=manualInput;whiteSpace=wrap;html=1;dashed=0;size=15;" vertex="1" parent="W4LlauTfSX9rmrrIxcwp-1">
          <mxGeometry x="515" y="250" width="160" height="80" as="geometry" />
        </mxCell>
        <mxCell id="kGH_8t6V3mvA3QmZx_XM-14" style="edgeStyle=orthogonalEdgeStyle;rounded=0;orthogonalLoop=1;jettySize=auto;html=1;exitX=0.5;exitY=1;exitDx=0;exitDy=0;" edge="1" parent="W4LlauTfSX9rmrrIxcwp-1" source="RfvmIdjkabR53NWstXG5-5" target="kGH_8t6V3mvA3QmZx_XM-13">
          <mxGeometry relative="1" as="geometry" />
        </mxCell>
        <mxCell id="RfvmIdjkabR53NWstXG5-5" value="Send data to API vm-metrics-api" style="html=1;dashed=0;whitespace=wrap;" vertex="1" parent="W4LlauTfSX9rmrrIxcwp-1">
          <mxGeometry x="507" y="479" width="176" height="51" as="geometry" />
        </mxCell>
        <mxCell id="RfvmIdjkabR53NWstXG5-7" style="edgeStyle=orthogonalEdgeStyle;rounded=0;orthogonalLoop=1;jettySize=auto;html=1;exitX=0.5;exitY=1;exitDx=0;exitDy=0;" edge="1" parent="W4LlauTfSX9rmrrIxcwp-1" source="RfvmIdjkabR53NWstXG5-5" target="RfvmIdjkabR53NWstXG5-5">
          <mxGeometry relative="1" as="geometry" />
        </mxCell>
        <mxCell id="kGH_8t6V3mvA3QmZx_XM-6" style="edgeStyle=orthogonalEdgeStyle;rounded=0;orthogonalLoop=1;jettySize=auto;html=1;exitX=0;exitY=0.5;exitDx=0;exitDy=0;entryX=0.5;entryY=0;entryDx=0;entryDy=0;" edge="1" parent="W4LlauTfSX9rmrrIxcwp-1" source="RfvmIdjkabR53NWstXG5-8" target="RfvmIdjkabR53NWstXG5-13">
          <mxGeometry relative="1" as="geometry" />
        </mxCell>
        <mxCell id="kGH_8t6V3mvA3QmZx_XM-12" style="edgeStyle=orthogonalEdgeStyle;rounded=0;orthogonalLoop=1;jettySize=auto;html=1;exitX=1;exitY=0.5;exitDx=0;exitDy=0;entryX=0.5;entryY=0;entryDx=0;entryDy=0;" edge="1" parent="W4LlauTfSX9rmrrIxcwp-1" source="RfvmIdjkabR53NWstXG5-8" target="kGH_8t6V3mvA3QmZx_XM-11">
          <mxGeometry relative="1" as="geometry" />
        </mxCell>
        <mxCell id="kGH_8t6V3mvA3QmZx_XM-17" style="edgeStyle=orthogonalEdgeStyle;rounded=0;orthogonalLoop=1;jettySize=auto;html=1;exitX=1;exitY=0.5;exitDx=0;exitDy=0;entryX=0.5;entryY=1;entryDx=0;entryDy=0;" edge="1" parent="W4LlauTfSX9rmrrIxcwp-1" source="RfvmIdjkabR53NWstXG5-8" target="RfvmIdjkabR53NWstXG5-13">
          <mxGeometry relative="1" as="geometry" />
        </mxCell>
        <mxCell id="RfvmIdjkabR53NWstXG5-8" value="Is time to process?" style="shape=rhombus;html=1;dashed=0;whitespace=wrap;perimeter=rhombusPerimeter;" vertex="1" parent="W4LlauTfSX9rmrrIxcwp-1">
          <mxGeometry x="354" y="110" width="120" height="100" as="geometry" />
        </mxCell>
        <mxCell id="RfvmIdjkabR53NWstXG5-10" value="Yes" style="text;html=1;align=center;verticalAlign=middle;resizable=0;points=[];autosize=1;" vertex="1" parent="W4LlauTfSX9rmrrIxcwp-1">
          <mxGeometry x="500" y="130" width="40" height="20" as="geometry" />
        </mxCell>
        <mxCell id="RfvmIdjkabR53NWstXG5-11" value="No" style="text;html=1;align=center;verticalAlign=middle;resizable=0;points=[];autosize=1;" vertex="1" parent="W4LlauTfSX9rmrrIxcwp-1">
          <mxGeometry x="310" y="130" width="30" height="20" as="geometry" />
        </mxCell>
        <mxCell id="kGH_8t6V3mvA3QmZx_XM-1" style="edgeStyle=orthogonalEdgeStyle;rounded=0;orthogonalLoop=1;jettySize=auto;html=1;exitX=1;exitY=0.5;exitDx=0;exitDy=0;entryX=0.5;entryY=1;entryDx=0;entryDy=0;" edge="1" parent="W4LlauTfSX9rmrrIxcwp-1" source="RfvmIdjkabR53NWstXG5-13" target="RfvmIdjkabR53NWstXG5-8">
          <mxGeometry relative="1" as="geometry" />
        </mxCell>
        <mxCell id="RfvmIdjkabR53NWstXG5-13" value="Wait for time to process&amp;nbsp;" style="shape=manualInput;whiteSpace=wrap;html=1;dashed=0;size=15;" vertex="1" parent="W4LlauTfSX9rmrrIxcwp-1">
          <mxGeometry x="183" y="190" width="160" height="80" as="geometry" />
        </mxCell>
        <mxCell id="kGH_8t6V3mvA3QmZx_XM-2" style="edgeStyle=orthogonalEdgeStyle;rounded=0;orthogonalLoop=1;jettySize=auto;html=1;exitX=0.5;exitY=1;exitDx=0;exitDy=0;" edge="1" parent="W4LlauTfSX9rmrrIxcwp-1" source="RfvmIdjkabR53NWstXG5-13" target="RfvmIdjkabR53NWstXG5-13">
          <mxGeometry relative="1" as="geometry" />
        </mxCell>
        <mxCell id="kGH_8t6V3mvA3QmZx_XM-9" style="edgeStyle=orthogonalEdgeStyle;rounded=0;orthogonalLoop=1;jettySize=auto;html=1;exitX=0.5;exitY=0.5;exitDx=0;exitDy=15;exitPerimeter=0;entryX=0.5;entryY=0;entryDx=0;entryDy=0;" edge="1" parent="W4LlauTfSX9rmrrIxcwp-1" source="kGH_8t6V3mvA3QmZx_XM-8" target="RfvmIdjkabR53NWstXG5-8">
          <mxGeometry relative="1" as="geometry" />
        </mxCell>
        <mxCell id="kGH_8t6V3mvA3QmZx_XM-8" value="" style="html=1;dashed=0;whitespace=wrap;shape=mxgraph.dfd.start" vertex="1" parent="W4LlauTfSX9rmrrIxcwp-1">
          <mxGeometry x="374" y="50" width="80" height="30" as="geometry" />
        </mxCell>
        <mxCell id="kGH_8t6V3mvA3QmZx_XM-15" style="edgeStyle=orthogonalEdgeStyle;rounded=0;orthogonalLoop=1;jettySize=auto;html=1;exitX=0.5;exitY=1;exitDx=0;exitDy=0;" edge="1" parent="W4LlauTfSX9rmrrIxcwp-1" source="kGH_8t6V3mvA3QmZx_XM-11" target="RfvmIdjkabR53NWstXG5-2">
          <mxGeometry relative="1" as="geometry" />
        </mxCell>
        <mxCell id="kGH_8t6V3mvA3QmZx_XM-11" value="Thread" style="ellipse;shape=doubleEllipse;html=1;dashed=0;whitespace=wrap;aspect=fixed;" vertex="1" parent="W4LlauTfSX9rmrrIxcwp-1">
          <mxGeometry x="570" y="180" width="50" height="50" as="geometry" />
        </mxCell>
        <mxCell id="kGH_8t6V3mvA3QmZx_XM-13" value="" style="shape=ellipse;html=1;dashed=0;whitespace=wrap;aspect=fixed;strokeWidth=5;perimeter=ellipsePerimeter;" vertex="1" parent="W4LlauTfSX9rmrrIxcwp-1">
          <mxGeometry x="575" y="560" width="40" height="40" as="geometry" />
        </mxCell>
      </root>
    </mxGraphModel>
  </diagram>
  <diagram id="okqjtjc3Yn1iYq3cit8N" name="Class Diagram">
    <mxGraphModel dx="1238" dy="516" grid="1" gridSize="10" guides="1" tooltips="1" connect="1" arrows="1" fold="1" page="1" pageScale="1" pageWidth="827" pageHeight="1169" math="0" shadow="0">
      <root>
        <mxCell id="_zlj0K7sJFn3BaGq5gv6-0" />
        <mxCell id="_zlj0K7sJFn3BaGq5gv6-1" parent="_zlj0K7sJFn3BaGq5gv6-0" />
        <mxCell id="_zlj0K7sJFn3BaGq5gv6-2" value="BranchDailyMovDTO" style="swimlane;fontStyle=0;childLayout=stackLayout;horizontal=1;startSize=26;fillColor=none;horizontalStack=0;resizeParent=1;resizeParentMax=0;resizeLast=0;collapsible=1;marginBottom=0;" vertex="1" parent="_zlj0K7sJFn3BaGq5gv6-1">
          <mxGeometry x="80" y="40" width="197.44" height="88" as="geometry" />
        </mxCell>
        <mxCell id="_zlj0K7sJFn3BaGq5gv6-3" value="- IDENTIFIER: long PK" style="text;strokeColor=none;fillColor=none;align=left;verticalAlign=top;spacingLeft=4;spacingRight=4;overflow=hidden;rotatable=0;points=[[0,0.5],[1,0.5]];portConstraint=eastwest;" vertex="1" parent="_zlj0K7sJFn3BaGq5gv6-2">
          <mxGeometry y="26" width="197.44" height="26" as="geometry" />
        </mxCell>
        <mxCell id="hDBWdCbM2d2hgAJOQF3b-1" value="- dataMov: data&#xa;" style="text;strokeColor=none;fillColor=none;align=left;verticalAlign=top;spacingLeft=4;spacingRight=4;overflow=hidden;rotatable=0;points=[[0,0.5],[1,0.5]];portConstraint=eastwest;spacing=0;" vertex="1" parent="_zlj0K7sJFn3BaGq5gv6-2">
          <mxGeometry y="52" width="197.44" height="18" as="geometry" />
        </mxCell>
        <mxCell id="hDBWdCbM2d2hgAJOQF3b-0" value="- component: short&#xa;" style="text;strokeColor=none;fillColor=none;align=left;verticalAlign=top;spacingLeft=4;spacingRight=4;overflow=hidden;rotatable=0;points=[[0,0.5],[1,0.5]];portConstraint=eastwest;spacing=0;" vertex="1" parent="_zlj0K7sJFn3BaGq5gv6-2">
          <mxGeometry y="70" width="197.44" height="18" as="geometry" />
        </mxCell>
      </root>
    </mxGraphModel>
  </diagram>
</mxfile>
